<svg width="181" height="95" viewBox="0 0 181 95" fill="none" xmlns="http://www.w3.org/2000/svg">
<path d="M10.4039 14.6498L4.44699 14.62L3.10468 18.3243L1.17111 18.3146L6.61772 4.123L8.25833 4.1312L13.6807 18.3771L11.7569 18.3675L10.4039 14.6498ZM5.01523 13.0799L9.84916 13.104L7.43526 6.44155L5.01523 13.0799ZM15.5948 18.3867L15.6118 4.16797L20.2601 4.19122C21.8031 4.19893 22.9615 4.52374 23.7355 5.16563C24.516 5.80756 24.9055 6.75352 24.904 8.00352C24.9032 8.66759 24.7137 9.25583 24.3355 9.76827C23.9573 10.2742 23.4425 10.6655 22.7911 10.9422C23.5591 11.1609 24.164 11.5741 24.606 12.1817C25.0545 12.7829 25.2783 13.5002 25.2773 14.3335C25.2757 15.6096 24.8611 16.6101 24.0335 17.3352C23.2058 18.0602 22.0367 18.4189 20.5263 18.4114L15.5948 18.3867ZM17.4777 11.7457L17.4716 16.8629L20.5672 16.8784C21.4396 16.8827 22.1267 16.6616 22.6286 16.2148C23.1369 15.7617 23.3916 15.1379 23.3925 14.3437C23.3946 12.6314 22.4646 11.7706 20.6026 11.7613L17.4777 11.7457ZM17.4795 10.2418L20.3115 10.256C21.1318 10.2601 21.7863 10.0583 22.2751 9.65054C22.7704 9.24286 23.0184 8.68746 23.0193 7.98433C23.0202 7.20308 22.793 6.63554 22.3377 6.2817C21.8824 5.92135 21.1893 5.73884 20.2583 5.73419L17.4849 5.72032L17.4795 10.2418ZM38.5198 13.9896C38.3422 15.4926 37.7842 16.652 36.8457 17.4676C35.9138 18.2767 34.6731 18.6774 33.1236 18.6697C31.4439 18.6613 30.097 18.0523 29.0828 16.8428C28.0752 15.6334 27.5726 14.0195 27.575 12.0013L27.5766 10.6341C27.5782 9.31248 27.8139 8.15154 28.2839 7.15128C28.7603 6.15105 29.4318 5.38618 30.2983 4.85665C31.1649 4.32062 32.1678 4.05545 33.3071 4.06115C34.8175 4.0687 36.0279 4.49793 36.9383 5.34884C37.8488 6.19325 38.378 7.36126 38.5259 8.8529L36.6412 8.84347C36.4798 7.70985 36.1259 6.88776 35.5797 6.37721C35.0399 5.8667 34.2818 5.609 33.3052 5.60412C32.1073 5.59813 31.1661 6.03613 30.4814 6.91813C29.8033 7.80016 29.4632 9.05823 29.4613 10.6923L29.4596 12.0693C29.4578 13.6123 29.7786 14.8411 30.422 15.7558C31.0655 16.6704 31.9666 17.1307 33.1254 17.1365C34.1671 17.1417 34.9649 16.9113 35.5188 16.4453C36.0793 15.9729 36.4514 15.1511 36.635 13.9802L38.5198 13.9896ZM41.0827 18.5142L41.0997 4.29543L45.1133 4.3155C46.3503 4.32169 47.4437 4.60059 48.3936 5.15222C49.3434 5.70385 50.0749 6.4855 50.588 7.49719C51.1076 8.50891 51.3699 9.66908 51.3749 10.9777L51.3738 11.8859C51.3722 13.2271 51.1104 14.4009 50.5883 15.4074C50.0728 16.4139 49.333 17.185 48.3688 17.7205C47.4111 18.2561 46.2943 18.5272 45.0182 18.5338L41.0827 18.5142ZM42.9728 5.84777L42.9595 16.9903L44.9322 17.0002C46.3775 17.0074 47.501 16.5638 48.3029 15.6694C49.1112 14.775 49.5164 13.4977 49.5184 11.8376L49.5194 11.0075C49.5213 9.39291 49.1419 8.13775 48.3813 7.24201C47.6272 6.3398 46.5535 5.8787 45.1603 5.85871L42.9728 5.84777ZM62.2524 12.0477L56.0904 12.0169L56.0844 17.056L63.2425 17.0918L63.2406 18.625L54.2076 18.5798L54.2245 4.36106L63.16 4.40574L63.1581 5.94871L56.0977 5.91341L56.0922 10.4837L62.2543 10.5145L62.2524 12.0477ZM73.4238 12.3966L67.4571 12.3667L67.4496 18.646L65.5746 18.6366L65.5916 4.4179L74.4001 4.46195L74.3982 6.00492L67.4647 5.97025L67.4589 10.8335L73.4256 10.8634L73.4238 12.3966ZM87.1293 16.8792C86.6467 17.5669 85.9723 18.0811 85.106 18.4218C84.2462 18.7561 83.2434 18.9203 82.0976 18.9146C80.9388 18.9088 79.9104 18.6335 79.0127 18.0886C78.1149 17.5372 77.4192 16.759 76.9256 15.7539C76.4386 14.7489 76.1893 13.5855 76.1779 12.2639L76.1793 11.0236C76.1819 8.88169 76.6819 7.22403 77.6794 6.05062C78.6834 4.87725 80.0903 4.29509 81.9002 4.30414C83.3846 4.31157 84.5788 4.6984 85.4828 5.46464C86.3868 6.22438 86.9389 7.30136 87.1391 8.6956L85.2641 8.68622C84.9148 6.80296 83.7961 5.8566 81.9081 5.84716C80.6516 5.84088 79.6974 6.27882 79.0453 7.16098C78.3997 8.03666 78.0726 9.31107 78.0641 10.9842L78.0627 12.1463C78.0608 13.7414 78.4239 15.0127 79.1519 15.9604C79.88 16.9015 80.8657 17.3752 82.1092 17.3814C82.8123 17.3849 83.4276 17.3099 83.9552 17.1563C84.4827 17.0027 84.9192 16.7412 85.2647 16.3718L85.2685 13.1785L81.9775 13.162L81.9793 11.6386L87.1355 11.6643L87.1293 16.8792ZM101.189 18.8147L99.3046 18.8053L99.3125 12.2331L92.1446 12.1972L92.1368 18.7695L90.2618 18.7601L90.2788 4.54136L92.1538 4.55073L92.1465 10.664L99.3143 10.6999L99.3216 4.58657L101.206 4.596L101.189 18.8147ZM110.493 4.64244L112.378 4.65187L112.366 14.7202C112.364 16.0809 111.953 17.1433 111.132 17.9074C110.317 18.6716 109.229 19.0503 107.869 19.0435C106.456 19.0364 105.356 18.6696 104.569 17.943C103.782 17.2164 103.39 16.202 103.391 14.8999L105.266 14.9093C105.265 15.7231 105.486 16.359 105.928 16.8169C106.377 17.2749 107.024 17.506 107.871 17.5103C108.645 17.5141 109.271 17.2731 109.746 16.7872C110.229 16.3013 110.474 15.619 110.481 14.7401L110.493 4.64244ZM119.176 12.2933L117.435 14.0913L117.429 18.8959L115.554 18.8866L115.571 4.66783L117.446 4.67721L117.438 11.7085L123.765 4.70881L126.03 4.72013L120.427 10.9714L126.453 18.9411L124.207 18.9298L119.176 12.2933ZM129.98 17.4255L136.718 17.4592L136.716 18.9924L128.093 18.9493L128.11 4.73054L129.995 4.73996L129.98 17.4255ZM141.294 4.79646L145.928 16.4213L150.591 4.84295L153.022 4.85511L153.005 19.0739L151.13 19.0645L151.137 13.5274L151.32 7.55169L146.638 19.042L145.203 19.0348L140.558 7.52717L140.737 13.4754L140.73 19.0125L138.855 19.0031L138.872 4.78435L141.294 4.79646ZM167.243 19.145L165.359 19.1356L158.213 8.14281L158.2 19.0998L156.316 19.0904L156.333 4.87166L158.217 4.88109L165.382 15.9228L165.395 4.91698L167.26 4.92631L167.243 19.145ZM4.40218 35.7644L4.39553 41.3308L2.52055 41.3215L2.53755 27.1027L7.78162 27.1289C9.33759 27.1367 10.5546 27.5399 11.4325 28.3386C12.317 29.1373 12.7584 30.191 12.7568 31.4995C12.7552 32.8798 12.321 33.942 11.4542 34.6864C10.594 35.4243 9.3598 35.7892 7.75175 35.7812L4.40218 35.7644ZM4.40402 34.2312L7.77312 34.2481C8.77571 34.2531 9.54421 34.0226 10.0786 33.5565C10.613 33.0839 10.8808 32.4016 10.8818 31.5097C10.8828 30.6633 10.6167 29.9849 10.0835 29.4744C9.55025 28.964 8.81816 28.6966 7.8872 28.6724L4.41068 28.6551L4.40402 34.2312ZM26.0048 34.7885C26.0031 36.1622 25.7836 37.346 25.3462 38.3399C24.9089 39.3273 24.296 40.099 23.5075 40.6549L26.0442 42.6598L24.7635 43.835L21.7683 41.4372C21.2995 41.5521 20.8046 41.6082 20.2838 41.6056C19.164 41.6 18.1715 41.3216 17.3063 40.7704C16.4411 40.2127 15.7682 39.4248 15.2876 38.4068C14.8136 37.3823 14.5709 36.1994 14.5595 34.8582L14.5607 33.8328C14.5623 32.4656 14.8014 31.2591 15.2779 30.2133C15.7544 29.1675 16.4259 28.3701 17.2925 27.821C18.1655 27.2655 19.1619 26.9905 20.2817 26.9961C21.4275 27.0019 22.433 27.2836 23.2982 27.8413C24.17 28.399 24.8396 29.1999 25.3071 30.2439C25.7746 31.2814 26.0075 32.4935 26.0059 33.8803L26.0048 34.7885ZM24.1309 33.8611C24.1329 32.1879 23.7992 30.8972 23.1297 29.9889C22.4667 29.0741 21.5167 28.6136 20.2798 28.6075C19.1014 28.6016 18.1699 29.0494 17.4852 29.9509C16.8071 30.846 16.4573 32.0942 16.4358 33.6957L16.4346 34.7406C16.4326 36.3682 16.7696 37.6525 17.4456 38.5933C18.1281 39.5343 19.0748 40.0077 20.2857 40.0138C21.4966 40.0199 22.4346 39.5851 23.0997 38.7095C23.7648 37.8274 24.1081 36.5628 24.1296 34.9158L24.1309 33.8611ZM34.1091 35.7274L30.7693 35.7107L30.7624 41.4627L28.8776 41.4533L28.8946 27.2345L33.6016 27.2581C35.2032 27.2661 36.4332 27.6368 37.2917 28.3703C38.1567 29.1038 38.5883 30.1671 38.5867 31.5604C38.5856 32.4458 38.3438 33.216 37.8613 33.8712C37.3852 34.5264 36.7206 35.0146 35.8673 35.3358L39.1999 41.3877L39.1998 41.5049L37.1881 41.4948L34.1091 35.7274ZM30.7711 34.1775L33.6519 34.1919C34.5829 34.1966 35.3221 33.9594 35.8696 33.4804C36.4235 33.0014 36.701 32.3582 36.7019 31.5509C36.703 30.672 36.4401 29.9969 35.9133 29.5255C35.3931 29.0541 34.6382 28.8127 33.6486 28.8013L30.7775 28.7869L30.7711 34.1775ZM45.4085 35.198C43.801 34.7277 42.6298 34.1555 41.8949 33.4812C41.1666 32.8005 40.803 31.9653 40.8042 30.9757C40.8055 29.8559 41.2526 28.9337 42.1453 28.209C43.0446 27.4778 44.2104 27.1158 45.6427 27.123C46.6193 27.1278 47.4882 27.321 48.2494 27.7024C49.0172 28.0838 49.609 28.6076 50.0249 29.2738C50.4473 29.94 50.658 30.6669 50.657 31.4547L48.7723 31.4453C48.7733 30.5859 48.5007 29.9107 47.9544 29.4197C47.4081 28.9222 46.6369 28.6709 45.6409 28.6659C44.7164 28.6613 43.9935 28.8628 43.4722 29.2703C42.9574 29.6714 42.6996 30.2333 42.6987 30.9559C42.698 31.5353 42.9416 32.0281 43.4293 32.4342C43.9237 32.8338 44.7598 33.2026 45.9378 33.5405C47.1223 33.8784 48.0463 34.2509 48.7099 34.6579C49.3799 35.0584 49.8742 35.5263 50.1925 36.0618C50.5174 36.5973 50.6794 37.2263 50.6786 37.949C50.6772 39.1013 50.2269 40.0236 49.3276 40.7157C48.4284 41.4013 47.2268 41.7403 45.7229 41.7328C44.7464 41.7279 43.8351 41.5378 42.9892 41.1625C42.1433 40.7807 41.4897 40.2631 41.0282 39.6097C40.5733 38.9564 40.3463 38.2163 40.3473 37.3895L42.232 37.3989C42.231 38.2583 42.5459 38.9402 43.1768 39.4447C43.8142 39.9427 44.6636 40.1943 45.7247 40.1996C46.7143 40.2046 47.473 40.0065 48.0008 39.6055C48.5286 39.2045 48.793 38.6557 48.7938 37.9591C48.7946 37.2625 48.5511 36.7241 48.0633 36.3441C47.5755 35.9575 46.6905 35.5755 45.4085 35.198ZM62.9256 28.9477L58.3553 28.9248L58.3402 41.6006L56.475 41.5913L56.4901 28.9155L51.9296 28.8927L51.9315 27.3497L62.9274 27.4047L62.9256 28.9477ZM75.0464 27.4653L75.0349 37.1333C75.0267 38.4744 74.6023 39.5693 73.7614 40.4179C72.9271 41.2666 71.7937 41.7395 70.3613 41.8365L69.8632 41.8535C68.3073 41.8457 67.0675 41.4196 66.1441 40.5752C65.2206 39.7307 64.7533 38.5727 64.742 37.1013L64.7536 27.4138L66.609 27.4231L66.5975 37.052C66.5963 38.0807 66.8785 38.8829 67.4442 39.4586C68.01 40.0278 68.8169 40.3151 69.8651 40.3203C70.9262 40.3256 71.7371 40.0465 72.2977 39.4829C72.8648 38.9193 73.1489 38.1232 73.1501 37.0945L73.1617 27.4559L75.0464 27.4653ZM82.6983 39.2321L86.7748 27.524L88.8255 27.5342L83.5352 41.7266L81.875 41.7183L76.6284 27.4732L78.6694 27.4834L82.6983 39.2321ZM93.7943 37.2954L94.0655 39.1718L94.4679 37.4844L97.2922 27.5765L98.8742 27.5845L101.606 37.52L101.995 39.2408L102.3 37.3282L104.519 27.6127L106.403 27.6221L102.939 41.8236L101.23 41.8151L98.313 31.4391L98.0897 30.354L97.8638 31.4368L94.8143 41.783L93.1054 41.7744L89.6849 27.5385L91.5599 27.5479L93.7943 37.2954ZM113.125 33.105L116.54 27.6728L118.747 27.6838L114.246 34.7121L118.837 41.9031L116.611 41.892L113.122 36.3276L109.599 41.8569L107.383 41.8458L112 34.7009L107.507 27.6276L109.704 27.6386L113.125 33.105ZM125.36 34.8556L129.079 27.7355L131.208 27.7461L126.295 36.6376L126.289 41.9404L124.414 41.931L124.42 36.6283L119.528 27.6877L121.677 27.6985L125.36 34.8556ZM134.435 40.4479L142.569 40.4886L142.568 42.0218L132.216 41.97L132.218 40.5638L140.024 29.3332L132.358 29.2949L132.36 27.7519L142.272 27.8015L142.27 29.1784L134.435 40.4479Z" fill="#6200EE"/>
<path d="M150.468 42.0613L148.652 42.0522L148.666 30.0112L145.022 31.3309L145.024 29.6902L150.202 27.7728L150.485 27.7742L150.468 42.0613ZM165.077 42.1343L155.761 42.0878L155.762 40.7889L160.691 35.3448C161.421 34.5216 161.923 33.8535 162.197 33.3406C162.478 32.8212 162.618 32.2848 162.619 31.7314C162.62 30.9892 162.396 30.3793 161.947 29.9018C161.499 29.4243 160.9 29.1837 160.151 29.18C159.253 29.1755 158.553 29.4291 158.051 29.9409C157.555 30.4463 157.307 31.1547 157.306 32.0661L155.499 32.0571C155.501 30.7485 155.922 29.6927 156.763 28.8896C157.61 28.0865 158.74 27.6885 160.153 27.6956C161.475 27.7022 162.519 28.0557 163.286 28.7562C164.054 29.4501 164.437 30.3733 164.436 31.5256C164.434 32.9253 163.54 34.5875 161.754 36.5122L157.94 40.624L165.079 40.6597L165.077 42.1343ZM169.628 34.1688L170.985 34.1756C171.838 34.1668 172.509 33.9455 172.998 33.5118C173.486 33.078 173.731 32.4901 173.732 31.7479C173.734 30.0812 172.905 29.2437 171.245 29.2354C170.464 29.2315 169.838 29.453 169.369 29.8999C168.906 30.3403 168.674 30.9283 168.674 31.664L166.867 31.655C166.868 30.5287 167.28 29.5965 168.101 28.8584C168.928 28.1138 169.977 27.7447 171.247 27.7511C172.588 27.7578 173.639 28.1178 174.4 28.8313C175.16 29.5447 175.54 30.533 175.539 31.796C175.538 32.4145 175.335 33.0124 174.931 33.5898C174.533 34.1673 173.989 34.5975 173.299 34.8805C174.08 35.1318 174.681 35.545 175.104 36.12C175.533 36.6951 175.747 37.396 175.746 38.2228C175.744 39.4989 175.326 40.5091 174.492 41.2537C173.658 41.9982 172.574 42.3671 171.239 42.3605C169.904 42.3538 168.817 41.987 167.979 41.2602C167.146 40.5333 166.731 39.5775 166.732 38.3926L168.548 38.4017C168.547 39.1504 168.791 39.7506 169.279 40.2022C169.766 40.6539 170.42 40.8818 171.241 40.8859C172.113 40.8902 172.781 40.6657 173.243 40.2123C173.706 39.7589 173.938 39.1057 173.939 38.2529C173.94 37.426 173.687 36.79 173.18 36.3447C172.672 35.8995 171.94 35.668 170.983 35.6502L169.626 35.6434L169.628 34.1688ZM9.65688 59.5818L11.6295 59.5917L11.6278 61.0663L9.65512 61.0565L9.65118 64.3572L7.83479 64.3482L7.83874 61.0474L1.36421 61.015L1.36548 59.9505L7.74437 50.1289L9.66817 50.1385L9.65688 59.5818ZM3.41673 59.5506L7.8405 59.5728L7.84884 52.6001L7.63353 52.9897L3.41673 59.5506ZM14.0932 57.2505L14.8244 50.1643L22.1094 50.2007L22.1074 51.8706L16.3555 51.8419L15.9212 55.7167C16.6183 55.31 17.4096 55.1089 18.295 55.1133C19.5905 55.1198 20.6187 55.5546 21.3793 56.4178C22.14 57.2745 22.5195 58.432 22.5178 59.8903C22.516 61.3551 22.1175 62.5088 21.3222 63.3511C20.5335 64.187 19.4295 64.6014 18.0102 64.5943C16.7537 64.5881 15.7288 64.2346 14.9353 63.534C14.1419 62.8335 13.6906 61.8677 13.5814 60.6366L15.2903 60.6452C15.4 61.4595 15.689 62.0762 16.1573 62.4952C16.6255 62.9077 17.2438 63.1159 18.012 63.1197C18.8518 63.1239 19.5097 62.8408 19.9856 62.2702C20.4681 61.6997 20.7099 60.9099 20.7111 59.9008C20.7123 58.9503 20.4528 58.1873 19.9326 57.6117C19.419 57.0297 18.7325 56.7366 17.8731 56.7323C17.0854 56.7284 16.4667 56.8978 16.0171 57.2406L15.5381 57.6288L14.0932 57.2505ZM31.5917 50.2384L31.5899 51.7716L31.2579 51.7699C29.8516 51.7889 28.7313 52.2 27.8971 53.0031C27.0628 53.8062 26.5796 54.9399 26.4477 56.4041C27.1974 55.5484 28.22 55.1239 29.5156 55.1303C30.7526 55.1365 31.7383 55.5777 32.473 56.4537C33.2141 57.3298 33.5839 58.458 33.5822 59.8382C33.5805 61.3031 33.1787 62.4729 32.3768 63.3478C31.5815 64.2228 30.5133 64.6569 29.1722 64.6502C27.8115 64.6434 26.7086 64.117 25.8635 63.0711C25.0185 62.0187 24.5969 60.6689 24.5989 59.0218L24.5997 58.3284C24.6028 55.7113 25.1618 53.7153 26.2768 52.3407C27.3982 50.9596 29.0624 50.2583 31.2695 50.2367L31.5917 50.2384ZM29.2111 56.6327C28.5926 56.6296 28.0227 56.8123 27.5014 57.1808C26.9802 57.5493 26.6183 58.013 26.4158 58.5719L26.415 59.236C26.4136 60.4078 26.6761 61.3532 27.2026 62.0719C27.7291 62.7907 28.3862 63.1521 29.174 63.156C29.9878 63.1601 30.6261 62.8638 31.0891 62.2672C31.5585 61.6705 31.7939 60.8872 31.795 59.9172C31.7962 58.9406 31.5595 58.1517 31.085 57.5503C30.6169 56.9425 29.9923 56.6366 29.2111 56.6327ZM44.9107 51.3304L39.0063 64.504L37.1118 64.4946L42.9961 51.7895L35.3008 51.7511L35.3026 50.2667L44.9119 50.3147L44.9107 51.3304ZM55.5811 54.079C55.5803 54.7887 55.3907 55.4192 55.0125 55.9707C54.6407 56.5223 54.1356 56.9527 53.4973 57.262C54.2391 57.5847 54.8244 58.0531 55.2534 58.6673C55.6888 59.2814 55.9061 59.9759 55.9052 60.7506C55.9037 61.9811 55.4859 62.9588 54.6517 63.6838C53.824 64.4089 52.7331 64.768 51.3789 64.7612C50.0118 64.7544 48.9152 64.3843 48.0893 63.651C47.2698 62.9112 46.8609 61.9294 46.8623 60.7054C46.8632 59.9372 47.0724 59.2449 47.4898 58.6285C47.9137 58.0121 48.497 57.5462 49.2395 57.2309C48.6084 56.9153 48.1109 56.4799 47.7469 55.9246C47.383 55.3694 47.2015 54.7403 47.2023 54.0371C47.2038 52.8392 47.589 51.8906 48.3581 51.1913C49.1271 50.4921 50.1399 50.1456 51.3964 50.1518C52.6464 50.1581 53.6551 50.5147 54.4224 51.2217C55.1963 51.9287 55.5826 52.8811 55.5811 54.079ZM54.0986 60.7025C54.0996 59.9083 53.8464 59.2592 53.3392 58.7554C52.8385 58.2515 52.1813 57.9976 51.3675 57.9935C50.5537 57.9895 49.8991 58.2336 49.4037 58.7259C48.9149 59.2183 48.67 59.8681 48.669 60.6754C48.668 61.4827 48.9049 62.1186 49.3796 62.5832C49.8608 63.0479 50.5278 63.2823 51.3807 63.2866C52.227 63.2908 52.8914 63.063 53.3737 62.6032C53.856 62.1369 54.0977 61.5033 54.0986 60.7025ZM51.3946 51.6362C50.685 51.6327 50.1086 51.8511 49.6653 52.2916C49.2286 52.7257 49.0098 53.3203 49.0089 54.0755C49.008 54.7981 49.2222 55.3851 49.6513 55.8365C50.087 56.2814 50.6662 56.5057 51.3888 56.5093C52.1114 56.5129 52.6879 56.2944 53.1181 55.8538C53.5548 55.4068 53.7736 54.822 53.7745 54.0993C53.7753 53.3767 53.5514 52.7863 53.1028 52.3284C52.6541 51.8704 52.0847 51.6397 51.3946 51.6362ZM65.1072 58.3845C64.729 58.8318 64.2761 59.1909 63.7485 59.4617C63.2273 59.7325 62.6542 59.8664 62.0293 59.8633C61.209 59.8592 60.4931 59.6538 59.8816 59.2471C59.2766 58.8404 58.8085 58.2716 58.4774 57.5408C58.1462 56.8035 57.9812 55.9921 57.9822 55.1067C57.9834 54.1562 58.1634 53.3009 58.5224 52.541C58.8879 51.7811 59.4029 51.201 60.0674 50.8007C60.732 50.4004 61.5069 50.2024 62.3924 50.2068C63.7986 50.2139 64.9047 50.7467 65.7107 51.8055C66.5233 52.8577 66.9285 54.292 66.9263 56.1084L66.9257 56.6358C66.9223 59.4027 66.3731 61.4215 65.2778 62.692C64.1825 63.9561 62.5314 64.5989 60.3244 64.6204L59.9728 64.6186L59.9746 63.0952L60.3555 63.0971C61.8464 63.0785 62.9927 62.6969 63.7943 61.9522C64.596 61.201 65.0336 60.0118 65.1072 58.3845ZM62.324 58.3706C62.9295 58.3736 63.4863 58.1909 63.9946 57.8223C64.5093 57.4538 64.8842 56.9967 65.1192 56.451L65.1201 55.7283C65.1215 54.5434 64.8655 53.5786 64.3521 52.8338C63.8387 52.0891 63.1881 51.7147 62.4003 51.7108C61.6061 51.7068 60.9677 52.0096 60.4852 52.6192C60.0027 53.2222 59.7609 54.0218 59.7597 55.0179C59.7585 55.988 59.9887 56.7899 60.4501 57.4237C60.9181 58.0511 61.5428 58.3667 62.324 58.3706Z" fill="#03DAC5"/>
<path d="M76.1152 64.6896C76.0113 64.4807 75.9271 64.1092 75.8626 63.575C75.0217 64.4432 74.0186 64.8744 72.8533 64.8686C71.8116 64.8634 70.9559 64.5661 70.286 63.9768C69.6227 63.3811 69.2915 62.6307 69.2926 61.7258C69.2939 60.6255 69.7116 59.7747 70.5456 59.1734C71.3862 58.5657 72.5649 58.2656 74.0819 58.2731L75.8396 58.2819L75.8406 57.4519C75.8414 56.8203 75.6532 56.3181 75.276 55.9451C74.8989 55.5656 74.3425 55.374 73.6068 55.3704C72.9623 55.3671 72.4217 55.5272 71.9852 55.8505C71.5486 56.1739 71.33 56.5667 71.3295 57.0289L69.5131 57.0198C69.5137 56.4925 69.6999 55.9856 70.0715 55.4992C70.4497 55.0063 70.958 54.6182 71.5963 54.3349C72.2412 54.0517 72.9478 53.912 73.716 53.9158C74.9334 53.9219 75.8868 54.2327 76.5762 54.8481C77.2655 55.457 77.6226 56.2954 77.6474 57.3632L77.6416 62.2265C77.6404 63.1966 77.7632 63.9687 78.0099 64.5428L78.0097 64.6991L76.1152 64.6896ZM73.1188 63.2977C73.6852 63.3005 74.2225 63.1567 74.7307 62.8663C75.2388 62.5758 75.6071 62.1968 75.8355 61.7292L75.8381 59.5612L74.4221 59.5541C72.2086 59.5431 71.1011 60.1853 71.0995 61.4809C71.0988 62.0473 71.2871 62.491 71.6643 62.8119C72.0416 63.1328 72.5264 63.2947 73.1188 63.2977ZM89.422 59.5901C89.42 61.2047 89.0474 62.5016 88.3041 63.481C87.5607 64.4539 86.564 64.9372 85.3141 64.9309C83.9794 64.9242 82.9481 64.4471 82.2201 63.4994L82.1307 64.7197L80.4706 64.7114L80.4885 49.7114L82.2951 49.7204L82.2885 55.3161C83.0187 54.4148 84.0251 53.9674 85.3076 53.9738C86.5902 53.9802 87.5954 54.4703 88.3234 55.444C89.0579 56.4177 89.4242 57.7476 89.4222 59.4338L89.422 59.5901ZM87.6156 59.376C87.6171 58.1455 87.3806 57.1938 86.9061 56.5209C86.4317 55.8479 85.7485 55.5092 84.8566 55.5047C83.6652 55.4988 82.8084 56.0479 82.2863 57.1521L82.2808 61.7224C82.8329 62.8319 83.6948 63.3896 84.8667 63.3955C85.7326 63.3998 86.4068 63.0679 86.8893 62.3997C87.3719 61.7315 87.614 60.7236 87.6156 59.376ZM95.9407 63.5094C96.5852 63.5127 97.1486 63.3202 97.6308 62.9319C98.1131 62.5437 98.3806 62.0568 98.4333 61.4711L100.142 61.4796C100.109 62.085 99.9 62.6601 99.5152 63.205C99.1305 63.75 98.6156 64.1836 97.9707 64.5059C97.3323 64.8282 96.6551 64.9876 95.9389 64.984C94.5001 64.9768 93.3549 64.4926 92.5032 63.5313C91.658 62.5635 91.2364 61.2463 91.2384 59.5796L91.2387 59.2769C91.24 58.2483 91.4299 57.3345 91.8084 56.5356C92.187 55.7367 92.7281 55.1177 93.4317 54.6785C94.1419 54.2393 94.9787 54.0221 95.9423 54.027C97.1271 54.0329 98.1098 54.3926 98.8902 55.1062C99.6771 55.8197 100.096 56.7431 100.147 57.8761L98.4377 57.8676C98.3864 57.1837 98.1266 56.6225 97.6584 56.184C97.1967 55.739 96.6241 55.5148 95.9405 55.5113C95.0225 55.5068 94.3092 55.8352 93.8006 56.4967C93.2986 57.1518 93.0468 58.1043 93.0453 59.3543L93.0449 59.6961C93.0434 60.9135 93.2929 61.8523 93.7935 62.5124C94.294 63.1724 95.0097 63.5048 95.9407 63.5094ZM101.737 59.4466C101.738 57.8255 102.124 56.5253 102.894 55.5461C103.663 54.5604 104.669 54.0706 105.913 54.0768C107.15 54.083 108.129 54.5111 108.851 55.3611L108.857 49.8532L110.664 49.8623L110.646 64.8623L108.986 64.854L108.899 63.7207C108.176 64.6025 107.169 65.0402 105.88 65.0338C104.656 65.0276 103.658 64.5213 102.884 63.5149C102.117 62.5084 101.734 61.1979 101.736 59.5833L101.737 59.4466ZM103.543 59.6607C103.541 60.8586 103.788 61.7974 104.282 62.4769C104.776 63.1565 105.459 63.4984 106.331 63.5028C107.477 63.5085 108.314 62.9984 108.843 61.9724L108.849 57.1189C108.309 56.1201 107.48 55.6179 106.36 55.6123C105.475 55.6078 104.784 55.9462 104.289 56.6273C103.793 57.3084 103.544 58.3196 103.543 59.6607ZM117.843 65.0936C116.411 65.0864 115.246 64.6118 114.349 63.6698C113.451 62.7213 113.004 61.4593 113.005 59.8838L113.006 59.5518C113.007 58.5036 113.207 57.5704 113.605 56.752C114.01 55.9272 114.57 55.2855 115.287 54.8268C116.01 54.3617 116.792 54.1312 117.631 54.1354C119.005 54.1423 120.072 54.6001 120.833 55.5089C121.594 56.4176 121.973 57.7151 121.971 59.4013L121.97 60.1532L114.812 60.1175C114.837 61.1592 115.138 62.0039 115.717 62.6513C116.302 63.2922 117.044 63.615 117.942 63.6195C118.58 63.6226 119.121 63.4951 119.564 63.2369C120.007 62.9787 120.395 62.6356 120.727 62.2076L121.83 63.0725C120.943 64.4287 119.614 65.1024 117.843 65.0936ZM117.63 55.6198C116.901 55.6162 116.288 55.88 115.793 56.4114C115.297 56.9363 114.991 57.6769 114.872 58.6334L120.165 58.6598L120.165 58.5231C120.114 57.6049 119.868 56.894 119.426 56.3905C118.984 55.8805 118.385 55.6236 117.63 55.6198ZM124.952 64.9338L124.963 55.7639L123.294 55.7555L123.295 54.3591L124.965 54.3674L124.966 53.2834C124.968 52.1506 125.272 51.2765 125.878 50.661C126.484 50.0456 127.34 49.7406 128.447 49.7461C128.864 49.7482 129.277 49.8056 129.687 49.9183L129.588 51.3827C129.282 51.3226 128.956 51.2917 128.611 51.2899C128.025 51.287 127.573 51.4573 127.253 51.8007C126.934 52.1377 126.774 52.6251 126.773 53.2632L126.772 54.3764L129.028 54.3877L129.026 55.7842L126.77 55.7729L126.759 64.9428L124.952 64.9338ZM130.359 59.5897C130.361 57.9426 130.744 56.6359 131.506 55.6697C132.269 54.6969 133.279 54.2137 134.536 54.22C135.825 54.2264 136.83 54.6872 137.551 55.6022L137.641 54.4308L139.291 54.4391L139.279 64.7515C139.277 66.1187 138.869 67.1942 138.054 67.9779C137.246 68.7616 136.158 69.15 134.791 69.1432C134.029 69.1394 133.284 68.9729 132.555 68.6437C131.827 68.3146 131.271 67.8658 130.887 67.2975L131.826 66.2182C132.599 67.1791 133.546 67.6623 134.666 67.6679C135.545 67.6723 136.229 67.4284 136.718 66.936C137.213 66.4437 137.461 65.7483 137.462 64.8499L137.463 63.9417C136.74 64.7714 135.753 65.1831 134.503 65.1769C133.266 65.1707 132.264 64.6676 131.497 63.6677C130.736 62.6678 130.357 61.3085 130.359 59.5897ZM132.175 59.8039C132.174 60.9953 132.417 61.934 132.904 62.62C133.392 63.2996 134.075 63.6415 134.954 63.6459C136.093 63.6516 136.93 63.1382 137.466 62.1057L137.471 57.2815C136.919 56.2696 136.09 55.7609 134.983 55.7554C134.104 55.751 133.417 56.0894 132.921 56.7705C132.426 57.4516 132.177 58.4627 132.175 59.8039ZM143.831 55.7411C144.632 54.762 145.675 54.2757 146.957 54.2821C149.19 54.2932 150.315 55.5586 150.332 58.0783L150.323 65.0607L148.517 65.0516L148.525 58.0595C148.519 57.2977 148.344 56.7337 148 56.3674C147.662 56.0011 147.131 55.8162 146.409 55.8125C145.823 55.8096 145.308 55.9633 144.865 56.2736C144.422 56.5839 144.076 56.9923 143.828 57.4989L143.819 65.0282L142.013 65.0191L142.031 50.0191L143.837 50.0282L143.831 55.7411ZM154.991 65.084L153.185 65.075L153.197 54.5086L155.004 54.5176L154.991 65.084ZM153.054 51.7051C153.054 51.4122 153.143 51.1652 153.319 50.9643C153.501 50.7633 153.768 50.6638 154.12 50.6655C154.471 50.6673 154.738 50.7695 154.92 50.9723C155.102 51.175 155.193 51.4229 155.193 51.7158C155.192 52.0088 155.101 52.2525 154.918 52.4469C154.736 52.6413 154.469 52.7376 154.117 52.7358C153.766 52.7341 153.499 52.6351 153.317 52.4389C153.141 52.2427 153.054 51.9981 153.054 51.7051ZM159.769 54.5415L159.755 66.3286C159.753 68.3598 158.83 69.3708 156.988 69.3616C156.591 69.3596 156.223 69.2992 155.885 69.1803L155.886 67.735C156.095 67.7881 156.368 67.8155 156.707 67.8172C157.11 67.8192 157.416 67.7101 157.625 67.4898C157.84 67.276 157.948 66.8989 157.949 66.3586L157.963 54.5324L159.769 54.5415ZM157.781 51.7288C157.781 51.4423 157.869 51.1986 158.045 50.9977C158.228 50.7902 158.491 50.6874 158.836 50.6891C159.188 50.6909 159.455 50.7931 159.637 50.9959C159.819 51.1986 159.91 51.4464 159.909 51.7394C159.909 52.0324 159.818 52.2761 159.635 52.4705C159.453 52.6649 159.186 52.7612 158.834 52.7594C158.482 52.7577 158.219 52.6587 158.043 52.4625C157.868 52.2663 157.78 52.0217 157.781 51.7288ZM165.632 60.2446L164.497 61.4206L164.493 65.1315L162.686 65.1225L162.704 50.1225L164.511 50.1315L164.5 59.2038L165.468 58.0465L168.763 54.5864L170.961 54.5974L166.844 58.9909L171.426 65.1662L169.307 65.1556L165.632 60.2446ZM3.8942 76.7621L3.94163 77.9342C4.71745 77.0266 5.7629 76.5761 7.07799 76.5827C8.55583 76.5901 9.561 77.1615 10.0935 78.297C10.4457 77.791 10.9019 77.3831 11.4621 77.0734C12.0289 76.7637 12.6964 76.6108 13.4646 76.6146C15.7823 76.6262 16.9592 77.8593 16.9953 80.314L16.9869 87.394L15.1803 87.385L15.1886 80.4124C15.1895 79.6571 15.0176 79.0931 14.673 78.7203C14.3284 78.341 13.7492 78.1493 12.9355 78.1452C12.2649 78.1419 11.708 78.3409 11.2648 78.7423C10.8217 79.1373 10.5639 79.6731 10.4914 80.3498L10.4831 87.3615L8.66667 87.3524L8.67494 80.4286C8.67678 78.8922 7.92575 78.1202 6.42187 78.1126C5.23699 78.1067 4.42585 78.6072 3.98845 79.6142L3.97923 87.329L2.17261 87.32L2.18524 76.7536L3.8942 76.7621ZM21.4428 76.8499L21.4998 78.1783C22.3083 77.1667 23.3636 76.6642 24.6657 76.6707C26.8987 76.6818 28.0235 77.9472 28.04 80.4669L28.0317 87.4493L26.225 87.4402L26.2334 80.4481C26.2278 79.6863 26.0527 79.1223 25.7081 78.756C25.37 78.3897 24.8396 78.2047 24.117 78.2011C23.531 78.1982 23.0165 78.3519 22.5734 78.6622C22.1304 78.9724 21.7848 79.3809 21.5368 79.8875L21.5278 87.4167L19.7212 87.4077L19.7338 76.8413L21.4428 76.8499ZM30.2842 82.0796C30.2854 81.0445 30.4883 80.1145 30.893 79.2897C31.3041 78.4649 31.8713 77.8297 32.5944 77.3841C33.3241 76.9386 34.1545 76.7181 35.0854 76.7228C36.5242 76.73 37.6857 77.2338 38.5699 78.2343C39.4607 79.2349 39.905 80.562 39.9031 82.2156L39.9029 82.3426C39.9017 83.3712 39.702 84.2947 39.3039 85.113C38.9123 85.9249 38.3484 86.5568 37.6122 87.0089C36.8825 87.461 36.0424 87.6846 35.0919 87.6799C33.6596 87.6727 32.4981 87.1689 31.6074 86.1683C30.7232 85.1678 30.282 83.8472 30.284 82.2066L30.2842 82.0796ZM32.1003 82.3036C32.0989 83.4754 32.3679 84.4176 32.9074 85.1299C33.4535 85.8423 34.1822 86.2007 35.0936 86.2053C36.0116 86.2099 36.7412 85.8554 37.2824 85.142C37.8236 84.422 38.095 83.4143 38.0966 82.1187C38.0979 80.9599 37.8224 80.021 37.2699 79.3021C36.7238 78.5767 35.9951 78.2117 35.0837 78.2071C34.1918 78.2027 33.4719 78.5539 32.9242 79.2608C32.3765 79.9677 32.1019 80.982 32.1003 82.3036ZM51.0942 82.3986C51.0923 84.0066 50.7229 85.3004 49.986 86.2798C49.2492 87.2591 48.2525 87.7457 46.996 87.7394C45.7135 87.733 44.7049 87.3211 43.9702 86.5036L43.9641 91.5915L42.1575 91.5824L42.175 76.9535L43.8253 76.9618L43.9118 78.1341C44.6486 77.2263 45.6713 76.7757 46.9798 76.7822C48.2493 76.7886 49.2514 77.2721 49.9859 78.2328C50.7269 79.1936 51.0964 80.5268 51.0944 82.2325L51.0942 82.3986ZM49.2878 82.1844C49.2892 80.993 49.0365 80.051 48.5295 79.3584C48.0225 78.6657 47.3263 78.3172 46.4409 78.3128C45.3472 78.3073 44.5263 78.7882 43.9783 79.7555L43.9722 84.8044C44.5114 85.7706 45.3377 86.2565 46.4509 86.2621C47.3168 86.2664 48.004 85.928 48.5127 85.247C49.0278 84.5595 49.2862 83.5386 49.2878 82.1844ZM52.9596 82.2028C52.9616 80.5426 53.344 79.2327 54.1069 78.273C54.8698 77.3067 55.8925 76.8268 57.175 76.8332C58.425 76.8395 59.4108 77.2643 60.1325 78.1078L60.2119 77.0437L61.872 77.052L61.8545 91.6809L60.0479 91.6719L60.0539 86.6328C59.3238 87.4104 58.3533 87.7962 57.1424 87.7902C55.8664 87.7838 54.8481 87.2839 54.0876 86.2905C53.3336 85.2906 52.9575 83.9704 52.9595 82.3298L52.9596 82.2028ZM54.766 82.4169C54.7646 83.6279 55.0173 84.5796 55.5243 85.2723C56.0378 85.965 56.7275 86.3135 57.5934 86.3178C58.6676 86.3232 59.4884 85.852 60.056 84.9043L60.0622 79.7285C59.4904 78.7947 58.6771 78.3251 57.6225 78.3198C56.7501 78.3155 56.0563 78.6603 55.5412 79.3544C55.026 80.0419 54.7676 81.0627 54.766 82.4169ZM69.8778 78.7132C69.6044 78.6662 69.3082 78.642 68.9892 78.6404C67.8043 78.6344 66.9997 79.135 66.5753 80.142L66.5663 87.642L64.7597 87.6329L64.7723 77.0665L66.5301 77.0753L66.558 78.2962C67.1515 77.3551 67.9919 76.8873 69.0792 76.8928C69.4307 76.8945 69.6976 76.9414 69.8798 77.0335L69.8778 78.7132ZM77.6926 84.8949C77.6932 84.4066 77.5081 84.028 77.1373 83.7593C76.7731 83.484 76.1321 83.2464 75.2143 83.0465C74.3031 82.8466 73.5775 82.6086 73.0375 82.3325C72.504 82.0564 72.1072 81.7289 71.8473 81.35C71.5938 80.9711 71.4674 80.5213 71.468 80.0004C71.469 79.1345 71.8345 78.4039 72.5644 77.8086C73.3008 77.2133 74.2386 76.9186 75.3779 76.9243C76.5758 76.9302 77.5455 77.2443 78.2869 77.8665C79.0349 78.4888 79.4083 79.2817 79.4071 80.2452L77.5907 80.2361C77.5913 79.7413 77.3803 79.3138 76.9575 78.9536C76.5413 78.5935 76.0142 78.4118 75.3761 78.4086C74.7186 78.4053 74.2041 78.546 73.8327 78.8306C73.4612 79.1152 73.2753 79.4886 73.2747 79.9509C73.2742 80.3871 73.4463 80.7167 73.7911 80.9398C74.1359 81.1629 74.7574 81.3776 75.6555 81.5839C76.5602 81.7902 77.2924 82.0348 77.8519 82.3175C78.4115 82.6003 78.8245 82.9409 79.0909 83.3393C79.3639 83.7313 79.5 84.2105 79.4994 84.7769C79.4982 85.7209 79.1197 86.4775 78.3638 87.0467C77.608 87.6093 76.6278 87.8876 75.4234 87.8816C74.5771 87.8773 73.8286 87.7239 73.1779 87.4211C72.5272 87.1184 72.0166 86.6992 71.6462 86.1635C71.2823 85.6213 71.1007 85.0377 71.1014 84.4127L72.908 84.4217C72.9399 85.0273 73.1802 85.5103 73.629 85.8706C74.0843 86.2245 74.683 86.4033 75.4252 86.407C76.1088 86.4104 76.6558 86.2764 77.0663 86.005C77.4833 85.7271 77.692 85.3571 77.6926 84.8949ZM84.3162 74.6057L84.3131 77.1642L86.2857 77.1741L86.2841 78.5706L84.3114 78.5607L84.3036 85.1135C84.3031 85.5366 84.3906 85.8561 84.5661 86.0718C84.7417 86.281 85.041 86.3867 85.4642 86.3888C85.6725 86.3898 85.959 86.3522 86.3237 86.2759L86.3219 87.7408C85.8465 87.8686 85.3842 87.9314 84.935 87.9291C84.1277 87.9251 83.5193 87.6779 83.1097 87.1876C82.7002 86.6972 82.4959 86.0029 82.497 85.1044L82.5048 78.5517L80.581 78.5421L80.5827 77.1456L82.5065 77.1552L82.5096 74.5966L84.3162 74.6057ZM94.9168 86.7388C94.2127 87.5621 93.1803 87.9704 91.8197 87.9636C90.6934 87.9579 89.8344 87.6281 89.2428 86.9741C88.6576 86.3136 88.3626 85.3421 88.3576 84.0595L88.3658 77.1845L90.1724 77.1935L90.1643 84.0197C90.1623 85.6213 90.8124 86.4253 92.1145 86.4318C93.4947 86.4387 94.4133 85.929 94.8702 84.9026L94.8794 77.2171L96.686 77.2261L96.6734 87.7925L94.9546 87.7839L94.9168 86.7388ZM102.916 85.3726L105.543 77.2704L107.389 77.2796L103.587 87.8271L102.21 87.8202L98.395 77.2347L100.241 77.2439L102.916 85.3726ZM118.473 85.4113L120.514 77.3453L122.32 77.3543L119.232 87.9053L117.767 87.898L115.208 79.8774L112.699 87.8727L111.234 87.8653L108.18 77.2836L109.977 77.2926L112.047 85.2131L114.518 77.3153L115.973 77.3226L118.473 85.4113ZM127.706 81.2387L130.055 77.393L132.164 77.4035L128.701 82.6109L132.259 87.9705L130.169 87.96L127.732 83.9927L125.286 87.9356L123.187 87.9251L126.758 82.6011L123.307 77.3592L125.397 77.3697L127.706 81.2387ZM137.535 85.3504L140.006 77.4427L141.939 77.4524L137.677 89.6284C137.017 91.383 135.971 92.2566 134.539 92.2495L134.197 92.2185L133.523 92.0881L133.525 90.6233L134.013 90.6648C134.625 90.6679 135.101 90.5465 135.44 90.3008C135.785 90.0552 136.069 89.6041 136.291 88.9477L136.693 87.8755L132.936 77.4074L134.908 77.4173L137.535 85.3504ZM145.249 86.5608L151.43 86.5917L151.429 88.0663L143.04 88.0244L143.042 86.6963L148.881 78.9813L143.139 78.9526L143.141 77.4584L151.148 77.4985L151.147 78.7778L145.249 86.5608Z" fill="#E457E7"/>
</svg>
